<mxfile host="65bd71144e">
    <diagram id="pVMHrjWmogwYdBB5azaM" name="Страница 1">
        <mxGraphModel dx="1753" dy="1042" grid="1" gridSize="10" guides="1" tooltips="1" connect="1" arrows="1" fold="1" page="1" pageScale="1" pageWidth="827" pageHeight="1169" math="0" shadow="0">
            <root>
                <mxCell id="0"/>
                <mxCell id="1" parent="0"/>
                <mxCell id="229" style="edgeStyle=none;html=1;entryX=0;entryY=0.006;entryDx=0;entryDy=0;entryPerimeter=0;" edge="1" parent="1" source="226" target="227">
                    <mxGeometry relative="1" as="geometry"/>
                </mxCell>
                <mxCell id="230" value="Логин для авторизации" style="edgeLabel;html=1;align=center;verticalAlign=middle;resizable=0;points=[];" vertex="1" connectable="0" parent="229">
                    <mxGeometry x="-0.1692" y="1" relative="1" as="geometry">
                        <mxPoint x="14" as="offset"/>
                    </mxGeometry>
                </mxCell>
                <mxCell id="233" style="edgeStyle=none;html=1;entryX=-0.4;entryY=0.492;entryDx=0;entryDy=0;entryPerimeter=0;" edge="1" parent="1" source="226" target="227">
                    <mxGeometry relative="1" as="geometry"/>
                </mxCell>
                <mxCell id="234" value="Запрос авторизации" style="edgeLabel;html=1;align=center;verticalAlign=middle;resizable=0;points=[];" vertex="1" connectable="0" parent="233">
                    <mxGeometry x="0.2021" y="1" relative="1" as="geometry">
                        <mxPoint x="-21" as="offset"/>
                    </mxGeometry>
                </mxCell>
                <mxCell id="226" value="" style="html=1;points=[];perimeter=orthogonalPerimeter;fillColor=strokeColor;" vertex="1" parent="1">
                    <mxGeometry x="40" y="201" width="5" height="510" as="geometry"/>
                </mxCell>
                <mxCell id="231" style="edgeStyle=none;html=1;entryX=1.2;entryY=0.145;entryDx=0;entryDy=0;entryPerimeter=0;dashed=1;" edge="1" parent="1" source="227" target="226">
                    <mxGeometry relative="1" as="geometry"/>
                </mxCell>
                <mxCell id="232" value="Доступ к системе" style="edgeLabel;html=1;align=center;verticalAlign=middle;resizable=0;points=[];" vertex="1" connectable="0" parent="231">
                    <mxGeometry x="0.2474" y="-2" relative="1" as="geometry">
                        <mxPoint x="21" as="offset"/>
                    </mxGeometry>
                </mxCell>
                <mxCell id="235" style="edgeStyle=none;html=1;entryX=1;entryY=0.147;entryDx=0;entryDy=0;entryPerimeter=0;exitX=1;exitY=0.057;exitDx=0;exitDy=0;exitPerimeter=0;" edge="1" parent="1" source="227" target="227">
                    <mxGeometry relative="1" as="geometry">
                        <mxPoint x="430" y="341" as="targetPoint"/>
                        <Array as="points">
                            <mxPoint x="340" y="230"/>
                            <mxPoint x="340" y="276"/>
                        </Array>
                    </mxGeometry>
                </mxCell>
                <mxCell id="236" value="Авторизация пользователя" style="edgeLabel;html=1;align=center;verticalAlign=middle;resizable=0;points=[];" vertex="1" connectable="0" parent="235">
                    <mxGeometry x="-0.7203" y="-1" relative="1" as="geometry">
                        <mxPoint x="72" y="20" as="offset"/>
                    </mxGeometry>
                </mxCell>
                <mxCell id="237" style="edgeStyle=none;html=1;entryX=0;entryY=0.005;entryDx=0;entryDy=0;entryPerimeter=0;" edge="1" parent="1" source="227" target="228">
                    <mxGeometry relative="1" as="geometry"/>
                </mxCell>
                <mxCell id="238" value="JWT (email, key)" style="edgeLabel;html=1;align=center;verticalAlign=middle;resizable=0;points=[];" vertex="1" connectable="0" parent="237">
                    <mxGeometry x="-0.217" y="2" relative="1" as="geometry">
                        <mxPoint as="offset"/>
                    </mxGeometry>
                </mxCell>
                <mxCell id="227" value="" style="html=1;points=[];perimeter=orthogonalPerimeter;fillColor=strokeColor;" vertex="1" parent="1">
                    <mxGeometry x="252" y="201" width="5" height="510" as="geometry"/>
                </mxCell>
                <mxCell id="240" style="edgeStyle=none;html=1;entryX=0.8;entryY=0.39;entryDx=0;entryDy=0;entryPerimeter=0;" edge="1" parent="1" target="228">
                    <mxGeometry relative="1" as="geometry">
                        <mxPoint x="640" y="606" as="targetPoint"/>
                        <mxPoint x="484" y="521" as="sourcePoint"/>
                        <Array as="points">
                            <mxPoint x="540" y="521"/>
                            <mxPoint x="600" y="521"/>
                            <mxPoint x="600" y="541"/>
                            <mxPoint x="600" y="581"/>
                        </Array>
                    </mxGeometry>
                </mxCell>
                <mxCell id="241" value="Проверка JWT" style="edgeLabel;html=1;align=center;verticalAlign=middle;resizable=0;points=[];" vertex="1" connectable="0" parent="240">
                    <mxGeometry x="-0.7329" relative="1" as="geometry">
                        <mxPoint x="77" y="30" as="offset"/>
                    </mxGeometry>
                </mxCell>
                <mxCell id="244" style="edgeStyle=none;html=1;entryX=2;entryY=0.961;entryDx=0;entryDy=0;entryPerimeter=0;dashed=1;" edge="1" parent="1" source="228" target="226">
                    <mxGeometry relative="1" as="geometry"/>
                </mxCell>
                <mxCell id="245" value="Доступ к системе" style="edgeLabel;html=1;align=center;verticalAlign=middle;resizable=0;points=[];" vertex="1" connectable="0" parent="244">
                    <mxGeometry x="-0.2419" y="1" relative="1" as="geometry">
                        <mxPoint x="-77" as="offset"/>
                    </mxGeometry>
                </mxCell>
                <mxCell id="228" value="" style="html=1;points=[];perimeter=orthogonalPerimeter;fillColor=strokeColor;" vertex="1" parent="1">
                    <mxGeometry x="480" y="501" width="5" height="210" as="geometry"/>
                </mxCell>
                <mxCell id="242" style="edgeStyle=none;html=1;entryX=0.8;entryY=0.39;entryDx=0;entryDy=0;entryPerimeter=0;" edge="1" parent="1">
                    <mxGeometry relative="1" as="geometry">
                        <mxPoint x="485" y="682.9000000000001" as="targetPoint"/>
                        <mxPoint x="485" y="621" as="sourcePoint"/>
                        <Array as="points">
                            <mxPoint x="541" y="621"/>
                            <mxPoint x="601" y="621"/>
                            <mxPoint x="601" y="641"/>
                            <mxPoint x="601" y="681"/>
                        </Array>
                    </mxGeometry>
                </mxCell>
                <mxCell id="243" value="Проверка email" style="edgeLabel;html=1;align=center;verticalAlign=middle;resizable=0;points=[];" vertex="1" connectable="0" parent="242">
                    <mxGeometry x="-0.7329" relative="1" as="geometry">
                        <mxPoint x="77" y="30" as="offset"/>
                    </mxGeometry>
                </mxCell>
                <mxCell id="247" style="edgeStyle=none;html=1;entryX=0.4;entryY=0.002;entryDx=0;entryDy=0;entryPerimeter=0;dashed=1;" edge="1" parent="1" source="246" target="226">
                    <mxGeometry relative="1" as="geometry"/>
                </mxCell>
                <mxCell id="246" value="Пользователь" style="shape=ext;double=1;rounded=1;whiteSpace=wrap;html=1;" vertex="1" parent="1">
                    <mxGeometry x="-17.5" y="90" width="120" height="40" as="geometry"/>
                </mxCell>
                <mxCell id="249" style="edgeStyle=none;html=1;entryX=0.5;entryY=-0.002;entryDx=0;entryDy=0;entryPerimeter=0;dashed=1;" edge="1" parent="1" source="248" target="227">
                    <mxGeometry relative="1" as="geometry"/>
                </mxCell>
                <mxCell id="248" value="Веб сайт (CRM)" style="shape=ext;double=1;rounded=1;whiteSpace=wrap;html=1;" vertex="1" parent="1">
                    <mxGeometry x="194.5" y="90" width="120" height="40" as="geometry"/>
                </mxCell>
                <mxCell id="251" style="edgeStyle=none;html=1;dashed=1;" edge="1" parent="1" source="250" target="228">
                    <mxGeometry relative="1" as="geometry"/>
                </mxCell>
                <mxCell id="250" value="FastAPI (Backend)" style="shape=ext;double=1;rounded=1;whiteSpace=wrap;html=1;" vertex="1" parent="1">
                    <mxGeometry x="422.5" y="90" width="120" height="40" as="geometry"/>
                </mxCell>
            </root>
        </mxGraphModel>
    </diagram>
</mxfile>